<svg xmlns="http://www.w3.org/2000/svg" width="50.358" height="29.26" viewBox="0 0 50.358 29.26"><path d="M17.556-80.08q-2.156,0-2.156-1.848a4.8,4.8,0,0,1,.616-2L29.106-105.8a9.482,9.482,0,0,1,2.156-2.7,4.614,4.614,0,0,1,2.926-.847H39.27a1.977,1.977,0,0,1,1.463.539,1.782,1.782,0,0,1,.539,1.309,4.888,4.888,0,0,1-.308,1.386l-8.008,21.56q-1.54,4.466-5.236,4.466Zm24.486,0q-2.156,0-2.156-1.848a4.8,4.8,0,0,1,.616-2L53.592-105.8a9.482,9.482,0,0,1,2.156-2.7,4.614,4.614,0,0,1,2.926-.847h5.082a1.977,1.977,0,0,1,1.463.539,1.782,1.782,0,0,1,.539,1.309,4.888,4.888,0,0,1-.308,1.386l-8.008,21.56Q55.9-80.08,52.206-80.08Z" transform="translate(-15.4 109.34)" fill="#e3604c"/></svg>