<svg xmlns="http://www.w3.org/2000/svg" width="52" height="52.226" viewBox="0 0 52 52.226"><g transform="translate(-6 -6)"><rect width="3" height="2" transform="translate(9 46)" fill="#ffbeb4"/><path d="M9.5,56a1.5,1.5,0,0,1,0-3h8a3.5,3.5,0,0,0,0-7H14v2h3.5a1.5,1.5,0,0,1,0,3h-8a3.5,3.5,0,0,0,0,7H24V56Z" fill="#ffbeb4"/><path d="M55,10H51a3,3,0,0,0-3,3v2H36V13a1,1,0,0,0-1-1V10.5A4.775,4.775,0,0,0,30,6a4.775,4.775,0,0,0-5,4.5V12a1,1,0,0,0-1,1v2H10a4,4,0,0,0,0,8H24v.036a13.45,13.45,0,0,0,0,20.928V49a.053.053,0,0,0,0,.012,1.022,1.022,0,0,0,.039.192,1.046,1.046,0,0,0,.045.2s0,.008,0,.012l3.3,7.286a.868.868,0,0,0,.063.116,3,3,0,0,0,5.088,0,1.175,1.175,0,0,0,.063-.116l3.3-7.286s0-.008,0-.012a.974.974,0,0,0,.045-.2A1.023,1.023,0,0,0,36,49.012S36,49,36,49V46.479a4.089,4.089,0,0,0,.768-.167A13.578,13.578,0,0,0,45.99,32.975q-.022-.586-.1-1.17h2.231A2.994,2.994,0,0,0,51,34h4a3,3,0,0,0,3-3V13A3,3,0,0,0,55,10ZM24,41.225a11.446,11.446,0,0,1,0-15.45ZM24,21H10a2,2,0,0,1,0-4H24Zm12,8.268a5.472,5.472,0,0,1,0,8.459ZM27,10.5A2.787,2.787,0,0,1,30,8a2.787,2.787,0,0,1,3,2.5V12H27ZM26,14h8v3H26Zm5.634,40H28.365l-1.814-4h6.9ZM34,48H26V38h4V36H26V34h4V32H26V30h4V28H26V19h8V38.785c0,.013.007.023.007.036A4.008,4.008,0,0,0,31.5,42.51a3.965,3.965,0,0,0,1.665,3.25,4.1,4.1,0,0,0,.835.452Zm9.727-16.976a11.154,11.154,0,0,1,.265,2.026,11.568,11.568,0,0,1-7.855,11.363,2.006,2.006,0,0,1-2.635-1.9,2.024,2.024,0,0,1,1.4-1.9A7.491,7.491,0,0,0,36,26.88V17H48V29.805H43.454ZM56,31a1,1,0,0,1-1,1H54V26H52v6H51a1,1,0,0,1-1-1V13a1,1,0,0,1,1-1h4a1,1,0,0,1,1,1Z" fill="#e3604c"/><rect width="8" height="3" transform="translate(26 14)" fill="#ffbeb4"/></g></svg>