<svg xmlns="http://www.w3.org/2000/svg" width="52" height="50" viewBox="0 0 52 50"><g transform="translate(-6 -7)"><path d="M10,51h2v4H10Z" fill="#ffbeb4"/><path d="M24,41h2V55H24Z" fill="#ffbeb4"/><path d="M38,49h2v6H38Z" fill="#ffbeb4"/><path d="M52,33h2V55H52Z" fill="#ffbeb4"/><path d="M25,16.5A1.5,1.5,0,1,0,26.5,18,1.5,1.5,0,0,0,25,16.5Z" fill="#e3604c"/><path d="M53,10.5A1.5,1.5,0,1,0,54.5,12,1.5,1.5,0,0,0,53,10.5Z" fill="#e3604c"/><path d="M14,43H8a2,2,0,0,0-2,2V57H16V45A2,2,0,0,0,14,43Zm0,2v2H8V45ZM8,55V49h6v6Z" fill="#e3604c"/><path d="M28,33H22a2,2,0,0,0-2,2V57H30V35A2,2,0,0,0,28,33Zm0,2v2H22V35ZM22,55V39h6V55Z" fill="#e3604c"/><path d="M42,41H36a2,2,0,0,0-2,2V57H44V43A2,2,0,0,0,42,41Zm0,2v2H36V43ZM36,55V47h6v8Z" fill="#e3604c"/><path d="M56,25H50a2,2,0,0,0-2,2V57H58V27A2,2,0,0,0,56,25Zm0,2v2H50V27ZM50,55V31h6V55Z" fill="#e3604c"/><path d="M51.048,16.6A5.054,5.054,0,1,0,49.4,15.46L41.662,25.784a4.9,4.9,0,0,0-5.8.356L29.2,20.691a5.01,5.01,0,1,0-8.592-.352l-6.58,5.71A4.95,4.95,0,0,0,11,25a5,5,0,1,0,5,5,4.936,4.936,0,0,0-.663-2.44l6.547-5.682a4.931,4.931,0,0,0,5.923.256l6.787,5.553A4.931,4.931,0,0,0,34,30a5,5,0,1,0,9.119-2.825ZM53,9a3,3,0,1,1-3,3A3,3,0,0,1,53,9ZM11,33a3,3,0,1,1,3-3A3,3,0,0,1,11,33ZM25,21a3,3,0,1,1,3-3A3,3,0,0,1,25,21ZM39,33a3,3,0,1,1,3-3A3,3,0,0,1,39,33Z" fill="#e3604c"/></g></svg>