<svg xmlns="http://www.w3.org/2000/svg" width="42" height="52" viewBox="0 0 42 52"><g transform="translate(-11 -6)"><path d="M44,46H24a1,1,0,0,1-1-1V43a1,1,0,0,1,1-1H44a1,1,0,0,1,1,1v2A1,1,0,0,1,44,46Z" fill="#ffbeb4"/><path d="M50,14H48V13a3,3,0,0,0-3-3H32.9a5,5,0,0,0-9.8,0H14a3,3,0,0,0-3,3V49a3,3,0,0,0,3,3h1v3a3,3,0,0,0,3,3H50a3,3,0,0,0,3-3V17A3,3,0,0,0,50,14ZM14,50a1,1,0,0,1-1-1V13a1,1,0,0,1,1-1h9v2H18a3,3,0,0,0-3,3V50Zm37,5a1,1,0,0,1-1,1H18a1,1,0,0,1-1-1V17a1,1,0,0,1,1-1h5v3a5,5,0,0,0,10,0V18a3,3,0,0,0-6,0v2h2V18a1,1,0,0,1,2,0v1a3,3,0,0,1-6,0V11a3,3,0,0,1,6,0v1H45a1,1,0,0,1,1,1v1H35v2H50a1,1,0,0,1,1,1Z" fill="#e3604c"/><path d="M35,18H45v2H35Z" fill="#e3604c"/><path d="M35,22H45v2H35Z" fill="#e3604c"/><path d="M23,30H45v2H23Z" fill="#e3604c"/><path d="M23,34H45v2H23Z" fill="#e3604c"/><path d="M23,38H45v2H23Z" fill="#e3604c"/></g></svg>