<svg xmlns="http://www.w3.org/2000/svg" width="52" height="52.001" viewBox="0 0 52 52.001"><g transform="translate(-6 -5.999)"><path d="M29,53A18,18,0,1,1,47,35,18.021,18.021,0,0,1,29,53Zm0-34A16,16,0,1,0,45,35,16.019,16.019,0,0,0,29,19Z" fill="#ffbeb4"/><path d="M48.568,27.361A20.978,20.978,0,1,1,36.642,15.433l.727-1.863A22.978,22.978,0,1,0,50.431,26.633Z" fill="#e3604c"/><path d="M57.914,14.6A2.016,2.016,0,0,0,56.38,13.21l-4.66-.932-.931-4.655a2.018,2.018,0,0,0-3.406-1.032l-6.5,6.5a3.025,3.025,0,0,0-.827,2.734l1.117,5.659L40.233,22.5h0l-2.786,2.712a12.265,12.265,0,1,0,1.414,1.342l3.729-3.73,5.584,1.117a3.026,3.026,0,0,0,2.736-.829l6.5-6.5A2.015,2.015,0,0,0,57.914,14.6ZM48.828,8.015l.956,4.784-1.538,1.539L47.18,15.4l-.959-4.8ZM42.02,15.432A1.031,1.031,0,0,1,42.3,14.5l2.218-2.2L45.48,17.1l-2.6,2.6ZM40,35a11.017,11.017,0,1,1-3.966-8.448l-5.015,5.014A3.953,3.953,0,0,0,29,31a4,4,0,1,0,4,4,3.954,3.954,0,0,0-.567-2.02l5.015-5.014A10.946,10.946,0,0,1,40,35Zm-9,0a2,2,0,1,1-2-2A2,2,0,0,1,31,35ZM49.5,21.7a1.028,1.028,0,0,1-.929.281l-4.277-.856,2.6-2.6,4.816.963Zm3.914-3.915L48.6,16.82l2.537-2.537h0l.066-.066L56,15.2Z" fill="#e3604c"/></g></svg>