<svg xmlns="http://www.w3.org/2000/svg" width="52" height="49.999" viewBox="0 0 52 49.999"><g transform="translate(-6 -7)"><path d="M55,17H46V10a3,3,0,0,0-3-3H9a3,3,0,0,0-3,3V44.845a2.126,2.126,0,0,0,1.314,1.963,2.264,2.264,0,0,0,.9.189,2.352,2.352,0,0,0,1.615-.659L16.606,39H18v7a3,3,0,0,0,3,3H47.393l6.823,7.391a2.264,2.264,0,0,0,1.55.608,2.332,2.332,0,0,0,.921-.191A2.125,2.125,0,0,0,58,54.845V20A3,3,0,0,0,55,17ZM15.731,37,8.416,44.931a.281.281,0,0,1-.307.042C8,44.925,8,44.864,8,44.845V10A1,1,0,0,1,9,9H43a1,1,0,0,1,1,1V36a1,1,0,0,1-1,1ZM56,54.845c0,.02,0,.08-.11.128-.043.018-.19.067-.256.01L48.267,47H21a1,1,0,0,1-1-1V39H43a3,3,0,0,0,3-3V19h9a1,1,0,0,1,1,1Z" fill="#e3604c"/><path d="M25.891,24.464A5.968,5.968,0,0,0,27,21V19a6,6,0,0,0-12,0v2a5.965,5.965,0,0,0,1.112,3.467A8.993,8.993,0,0,0,12,32v1H30V32A8.942,8.942,0,0,0,25.891,24.464ZM17,19a4,4,0,0,1,8,0v2a4,4,0,0,1-8,0ZM14.072,31a7.01,7.01,0,0,1,3.486-5.094,5.964,5.964,0,0,0,6.887,0A6.959,6.959,0,0,1,27.93,31Z" fill="#e3604c"/><path d="M32,22h6v2H32Z" fill="#e3604c"/><path d="M32,18h8v2H32Z" fill="#e3604c"/><path d="M32,14h8v2H32Z" fill="#e3604c"/><path d="M38,30a1,1,0,0,1-1,1H33a1,1,0,0,1-1-1V27a1,1,0,0,1,1-1h4a1,1,0,0,1,1,1Z" fill="#ffbeb4"/></g></svg>