<svg xmlns="http://www.w3.org/2000/svg" width="50" height="52" viewBox="0 0 50 52"><g transform="translate(-7 -6)"><rect width="8" height="2" transform="translate(37 54)" fill="#ffbeb4"/><rect width="8" height="2" transform="translate(20 54)" fill="#ffbeb4"/><rect width="2" height="5" transform="translate(28 22)" fill="#ffbeb4"/><rect width="2" height="5" transform="translate(34 22)" fill="#ffbeb4"/><rect width="2" height="5" transform="translate(28 32)" fill="#ffbeb4"/><rect width="2" height="5" transform="translate(34 32)" fill="#ffbeb4"/><path d="M25,39H39a2,2,0,0,0,2-2V33a2,2,0,0,0-2-2H25a2,2,0,0,0-2,2v4A2,2,0,0,0,25,39Zm0-6H39v4H25Z" fill="#e3604c"/><rect width="2" height="4" transform="translate(32 48)" fill="#e3604c"/><path d="M55,56V24.15A3.153,3.153,0,0,0,51.85,21H46V18h1a1,1,0,0,0,1-1V13a1,1,0,0,0-1-1H45.9A5.009,5.009,0,0,0,41,8H33V6H31V8H23a5.009,5.009,0,0,0-4.9,4H17a1,1,0,0,0-1,1v4a1,1,0,0,0,1,1h1v3H12.15A3.153,3.153,0,0,0,9,24.15V56H7v2H57V56ZM18,56H11V54h3V52H11V49h3V47H11V44h3V42H11V39h3V37H11V34h3V32H11V29h3V27H11V24.15A1.151,1.151,0,0,1,12.15,23H18Zm5-46H41a3.006,3.006,0,0,1,2.829,2H20.171A3.006,3.006,0,0,1,23,10Zm-5,4H46v2H18Zm9,42H20V54h7Zm8,0H29V45a1,1,0,0,1,1-1h4a1,1,0,0,1,1,1Zm9,0H37V54h7Zm0-8H40v2h4v2H37V45a3,3,0,0,0-3-3H30a3,3,0,0,0-3,3v7H20V50h4V48H20V18H44Zm9-21H50v2h3v3H50v2h3v3H50v2h3v3H50v2h3v3H50v2h3v3H50v2h3v2H46V23h5.85A1.151,1.151,0,0,1,53,24.15Z" fill="#e3604c"/><path d="M25,29H39a2,2,0,0,0,2-2V23a2,2,0,0,0-2-2H25a2,2,0,0,0-2,2v4A2,2,0,0,0,25,29Zm0-6H39v4H25Z" fill="#e3604c"/></g></svg>