<svg xmlns="http://www.w3.org/2000/svg" width="15.872" height="15.872" viewBox="0 0 15.872 15.872"><path d="M14.174,4.746h0a.952.952,0,1,0,.952.952h0A.952.952,0,0,0,14.174,4.746Zm3.651,1.92h0a6.023,6.023,0,0,0-.365-1.928h0a3.92,3.92,0,0,0-.921-1.4h0a3.73,3.73,0,0,0-1.4-.913h0a5.793,5.793,0,0,0-1.928-.373C12.364,2,12.094,2,9.936,2s-2.428,0-3.27.048h0a5.793,5.793,0,0,0-1.928.373h0a3.793,3.793,0,0,0-1.4.913h0a3.73,3.73,0,0,0-.913,1.4h0a5.793,5.793,0,0,0-.373,1.928C2,7.507,2,7.777,2,9.936s0,2.428.048,3.27h0a5.793,5.793,0,0,0,.373,1.928h0a3.73,3.73,0,0,0,.913,1.4h0a3.793,3.793,0,0,0,1.4.913h0a5.793,5.793,0,0,0,1.928.373c.841.048,1.111.048,3.27.048s2.428,0,3.27-.048h0a5.793,5.793,0,0,0,1.928-.373h0a3.73,3.73,0,0,0,1.4-.913h0a3.849,3.849,0,0,0,.921-1.4h0a6.023,6.023,0,0,0,.365-1.928c0-.841.048-1.111.048-3.27s0-2.428-.048-3.27ZM16.4,13.11h0a4.452,4.452,0,0,1-.27,1.476h0a2.428,2.428,0,0,1-.6.913h0a2.532,2.532,0,0,1-.913.6h0a4.452,4.452,0,0,1-1.476.27c-.794.04-1.087.048-3.174.048s-2.381,0-3.174-.048h0a4.547,4.547,0,0,1-1.54-.238h0a2.6,2.6,0,0,1-.873-.6h0a2.381,2.381,0,0,1-.587-.913h0a4.4,4.4,0,0,1-.317-1.508c0-.794-.048-1.087-.048-3.174s0-2.381.048-3.174h0a4.4,4.4,0,0,1,.278-1.508h0a2.381,2.381,0,0,1,.627-.873h0a2.492,2.492,0,0,1,.873-.635h0a4.547,4.547,0,0,1,1.508-.27c.794,0,1.087-.048,3.174-.048s2.381,0,3.174.048h0a4.452,4.452,0,0,1,1.476.27h0a2.428,2.428,0,0,1,.944.635h0a2.428,2.428,0,0,1,.6.873h0a4.452,4.452,0,0,1,.27,1.508c.04.794.048,1.087.048,3.174s-.008,2.381-.048,3.174ZM9.936,5.865h0a4.071,4.071,0,1,0,4.079,4.071h0A4.063,4.063,0,0,0,9.96,5.865H9.936Zm0,6.714h0a2.643,2.643,0,1,1,2.643-2.643h0A2.643,2.643,0,0,1,9.936,12.578Z" transform="translate(-2 -2)" fill="#fff"/></svg>