<svg xmlns="http://www.w3.org/2000/svg" width="115.543" height="33.795" viewBox="0 0 115.543 33.795"><path d="M-55.172-22.258h11.43L-47.523-5.887h4.1L-44.795,0h-11.43l3.781-16.371h-4.1Zm4.877-7.176A3.853,3.853,0,0,1-50-30.927a3.709,3.709,0,0,1,.806-1.214,3.853,3.853,0,0,1,1.214-.816,3.788,3.788,0,0,1,1.515-.3,3.6,3.6,0,0,1,1.461.3,3.888,3.888,0,0,1,1.2.816,3.853,3.853,0,0,1,.816,1.214,3.734,3.734,0,0,1,.3,1.493,3.734,3.734,0,0,1-.3,1.493,3.853,3.853,0,0,1-.816,1.214,3.888,3.888,0,0,1-1.2.816,3.6,3.6,0,0,1-1.461.3,3.787,3.787,0,0,1-1.515-.3,3.853,3.853,0,0,1-1.214-.816A3.709,3.709,0,0,1-50-27.94,3.853,3.853,0,0,1-50.295-29.434Zm9.582,20.066a13.643,13.643,0,0,1,1.106-5.575,13.131,13.131,0,0,1,2.976-4.275A13.289,13.289,0,0,1-32.3-21.957a14.057,14.057,0,0,1,5.188-.967,10.054,10.054,0,0,1,3.942.773,9.973,9.973,0,0,1,3.19,2.116,9.821,9.821,0,0,1,2.127,3.158,9.844,9.844,0,0,1,.773,3.9,13.793,13.793,0,0,1-1.042,5.414,13.175,13.175,0,0,1-2.857,4.275,12.936,12.936,0,0,1-4.3,2.814,14.085,14.085,0,0,1-5.36,1.01,10.1,10.1,0,0,1-4.007-.784,10.12,10.12,0,0,1-3.19-2.127A9.708,9.708,0,0,1-39.95-5.521,9.777,9.777,0,0,1-40.713-9.367Zm7-.795a5.124,5.124,0,0,0,.279,1.729,4.075,4.075,0,0,0,.784,1.354,3.49,3.49,0,0,0,1.2.881,3.675,3.675,0,0,0,1.515.312,5.146,5.146,0,0,0,2.17-.483A6.248,6.248,0,0,0-25.878-7.7a6.521,6.521,0,0,0,1.321-2,6.216,6.216,0,0,0,.494-2.481,5.264,5.264,0,0,0-.312-1.9,3.986,3.986,0,0,0-.827-1.343,3.328,3.328,0,0,0-1.2-.806,3.979,3.979,0,0,0-1.461-.269,5.267,5.267,0,0,0-2.288.5A5.9,5.9,0,0,0-32-14.631a6.6,6.6,0,0,0-1.246,2.009A6.535,6.535,0,0,0-33.709-10.162Zm20.646-12.1h11.3l-.344,1.826v-.021a12.837,12.837,0,0,1,2-1.246A11.092,11.092,0,0,1,2.02-22.5a8.778,8.778,0,0,1,2.256-.29,7.955,7.955,0,0,1,3.266.623,5.413,5.413,0,0,1,2.234,1.783,6.175,6.175,0,0,1,1.063,2.847,10.679,10.679,0,0,1-.269,3.813L8.744-5.887H12.8L11.451,0H.043L2.814-11.967a4.39,4.39,0,0,0,.118-1.493,3.068,3.068,0,0,0-.344-1.16,1.866,1.866,0,0,0-.73-.741,2.145,2.145,0,0,0-1.063-.258,6.174,6.174,0,0,0-2.707.838,11.737,11.737,0,0,0-1.74,1.117L-6.811,0h-7.541l3.781-16.371h-3.867Zm30.529,0H28.9L25.115-5.887h4.1L27.844,0H16.414L20.2-16.371h-4.1Zm4.877-7.176a3.853,3.853,0,0,1,.29-1.493,3.709,3.709,0,0,1,.806-1.214,3.853,3.853,0,0,1,1.214-.816,3.787,3.787,0,0,1,1.515-.3,3.6,3.6,0,0,1,1.461.3,3.888,3.888,0,0,1,1.2.816,3.853,3.853,0,0,1,.816,1.214,3.734,3.734,0,0,1,.3,1.493,3.734,3.734,0,0,1-.3,1.493,3.853,3.853,0,0,1-.816,1.214,3.888,3.888,0,0,1-1.2.816,3.6,3.6,0,0,1-1.461.3,3.787,3.787,0,0,1-1.515-.3,3.853,3.853,0,0,1-1.214-.816,3.709,3.709,0,0,1-.806-1.214A3.853,3.853,0,0,1,22.344-29.434ZM46.621-1.7A6.463,6.463,0,0,1,44.516-.279a8.012,8.012,0,0,1-3.287.623,9.731,9.731,0,0,1-3.416-.623,8.655,8.655,0,0,1-2.976-1.858A9.39,9.39,0,0,1,32.731-5.2a10.345,10.345,0,0,1-.806-4.211,13.385,13.385,0,0,1,.537-3.856,13.173,13.173,0,0,1,1.482-3.287,12.5,12.5,0,0,1,2.245-2.653,13.7,13.7,0,0,1,2.836-1.955,14.6,14.6,0,0,1,3.244-1.214,14.513,14.513,0,0,1,3.47-.419,9.451,9.451,0,0,1,1.687.129q.7.129,1.6.387a7.23,7.23,0,0,1,2.105,1.117l.258-1.1h7.3l-3.8,16.371H59L57.621,0H46.234Zm.795-6.295.945-1.182,1.074-4.641a4.8,4.8,0,0,0-.666-.956,3.879,3.879,0,0,0-1.021-.806,5.44,5.44,0,0,0-1.332-.526,5.875,5.875,0,0,0-1.45-.183,5.448,5.448,0,0,0-2.213.462,5.953,5.953,0,0,0-1.837,1.246,6.036,6.036,0,0,0-1.257,1.858,5.644,5.644,0,0,0-.473,2.3,4.667,4.667,0,0,0,.322,1.8,3.619,3.619,0,0,0,.881,1.289,3.689,3.689,0,0,0,1.289.773,4.679,4.679,0,0,0,1.568.258,6.05,6.05,0,0,0,1.45-.183,5.918,5.918,0,0,0,1.429-.559A6.012,6.012,0,0,0,47.416-7.992Z" transform="translate(56.547 33.258)" fill="#e3604c"/></svg>